<svg width="96" height="96" viewBox="0 0 96 96" fill="none" xmlns="http://www.w3.org/2000/svg">
<path opacity="0.4" d="M86.961 37.7602H8.00098V25.6802C8.00098 15.9202 15.921 8.00024 25.681 8.00024H35.001C41.521 8.00024 43.561 10.1202 46.161 13.6002L51.761 21.0402C53.001 22.6802 53.161 22.9202 55.481 22.9202H66.641C76.121 22.8802 84.201 29.1202 86.961 37.7602Z" fill="white"/>
<path d="M87.961 43.36C87.881 41.4 87.561 39.56 86.961 37.76H8.00098V66.6C8.00098 78.4 17.601 88 29.401 88H66.601C78.401 88 88.001 78.4 88.001 66.6V44.28C88.001 44 88.001 43.64 87.961 43.36Z" fill="white"/>
<path opacity="0.4" d="M60.5096 49.5058C55.9463 44.9579 48.5462 44.9579 44.0137 49.5058C40.8225 52.6662 39.8667 57.2142 41.1 61.2225L33.8542 68.4683C33.3454 68.9925 32.9908 70.0254 33.0987 70.7654L33.5612 74.1263C33.7308 75.2363 34.7637 76.2846 35.8737 76.4388L39.2346 76.9013C39.9746 77.0092 41.0075 76.67 41.5317 76.1304L42.7958 74.8663C43.1042 74.5733 43.1042 74.08 42.7958 73.7717L39.805 70.7808C39.3579 70.3338 39.3579 69.5937 39.805 69.1467C40.2521 68.6996 40.9921 68.6996 41.4392 69.1467L44.4454 72.1529C44.7383 72.4458 45.2317 72.4458 45.5246 72.1529L48.7929 68.9C52.7858 70.1488 57.3338 69.1775 60.5096 66.0171C65.0575 61.4692 65.0575 54.0538 60.5096 49.5058ZM52.3542 61.5C50.2267 61.5 48.5 59.7733 48.5 57.6458C48.5 55.5183 50.2267 53.7917 52.3542 53.7917C54.4817 53.7917 56.2083 55.5183 56.2083 57.6458C56.2083 59.7733 54.4817 61.5 52.3542 61.5Z" fill="#041F39"/>
<path d="M52.3542 61.5C54.4828 61.5 56.2083 59.7744 56.2083 57.6458C56.2083 55.5172 54.4828 53.7917 52.3542 53.7917C50.2256 53.7917 48.5 55.5172 48.5 57.6458C48.5 59.7744 50.2256 61.5 52.3542 61.5Z" fill="#041F39"/>
</svg>
