<svg width="89" height="89" viewBox="0 0 89 89" fill="none" xmlns="http://www.w3.org/2000/svg">
<path d="M0 24C0 10.7452 10.7452 0 24 0H65C78.2548 0 89 10.7452 89 24V65C89 78.2548 78.2548 89 65 89H24C10.7452 89 0 78.2548 0 65V24Z" fill="#07345F"/>
<path opacity="0.4" d="M63.0013 26.0225C55.9713 19.0162 44.5713 19.0162 37.5888 26.0225C32.6725 30.8912 31.2 37.8975 33.1 44.0725L21.9375 55.235C21.1538 56.0425 20.6075 57.6337 20.7738 58.7737L21.4863 63.9513C21.7475 65.6613 23.3388 67.2763 25.0488 67.5138L30.2262 68.2262C31.3662 68.3925 32.9575 67.87 33.765 67.0387L35.7125 65.0912C36.1875 64.64 36.1875 63.88 35.7125 63.405L31.105 58.7975C30.4163 58.1088 30.4163 56.9687 31.105 56.28C31.7938 55.5912 32.9338 55.5912 33.6225 56.28L38.2538 60.9112C38.705 61.3625 39.465 61.3625 39.9162 60.9112L44.9512 55.9C51.1025 57.8237 58.1088 56.3275 63.0013 51.4587C70.0075 44.4525 70.0075 33.0287 63.0013 26.0225ZM50.4375 44.5C47.16 44.5 44.5 41.84 44.5 38.5625C44.5 35.285 47.16 32.625 50.4375 32.625C53.715 32.625 56.375 35.285 56.375 38.5625C56.375 41.84 53.715 44.5 50.4375 44.5Z" fill="white"/>
<path d="M50.4375 44.5C53.7167 44.5 56.375 41.8417 56.375 38.5625C56.375 35.2833 53.7167 32.625 50.4375 32.625C47.1583 32.625 44.5 35.2833 44.5 38.5625C44.5 41.8417 47.1583 44.5 50.4375 44.5Z" fill="white"/>
</svg>
