<svg width="156" height="156" viewBox="0 0 156 156" fill="none" xmlns="http://www.w3.org/2000/svg">
<path opacity="0.4" d="M128.634 27.4301C109.394 8.25508 78.1942 8.25508 59.0842 27.4301C45.6292 40.7551 41.5992 59.9301 46.7992 76.8301L16.2492 107.38C14.1042 109.59 12.6092 113.945 13.0642 117.065L15.0142 131.235C15.7292 135.915 20.0842 140.335 24.7642 140.985L38.9342 142.935C42.0542 143.39 46.4092 141.96 48.6192 139.685L53.9492 134.355C55.2492 133.12 55.2492 131.04 53.9492 129.74L41.3392 117.13C39.4542 115.245 39.4542 112.125 41.3392 110.24C43.2242 108.355 46.3442 108.355 48.2292 110.24L60.9042 122.915C62.1392 124.15 64.2192 124.15 65.4542 122.915L79.2342 109.2C96.0692 114.465 115.244 110.37 128.634 97.0451C147.809 77.8701 147.809 46.6051 128.634 27.4301ZM94.2492 78.0001C85.2792 78.0001 77.9992 70.7201 77.9992 61.7501C77.9992 52.7801 85.2792 45.5001 94.2492 45.5001C103.219 45.5001 110.499 52.7801 110.499 61.7501C110.499 70.7201 103.219 78.0001 94.2492 78.0001Z" fill="white"/>
<path d="M94.25 78C103.225 78 110.5 70.7246 110.5 61.75C110.5 52.7754 103.225 45.5 94.25 45.5C85.2754 45.5 78 52.7754 78 61.75C78 70.7246 85.2754 78 94.25 78Z" fill="white"/>
</svg>
