<svg width="156" height="156" viewBox="0 0 156 156" fill="none" xmlns="http://www.w3.org/2000/svg">
<path opacity="0.4" d="M77.9993 112.775C83.8508 112.775 88.5943 108.031 88.5943 102.18C88.5943 96.3285 83.8508 91.585 77.9993 91.585C72.1478 91.585 67.4043 96.3285 67.4043 102.18C67.4043 108.031 72.1478 112.775 77.9993 112.775Z" fill="#2CB1EF"/>
<path d="M108.225 61.3599H47.775C21.125 61.3599 13 69.4849 13 96.1349V108.225C13 134.875 21.125 143 47.775 143H108.225C134.875 143 143 134.875 143 108.225V96.1349C143 69.4849 134.875 61.3599 108.225 61.3599ZM78 121.81C67.145 121.81 58.37 112.97 58.37 102.18C58.37 91.3899 67.145 82.5499 78 82.5499C88.855 82.5499 97.63 91.3899 97.63 102.18C97.63 112.97 88.855 121.81 78 121.81Z" fill="#2CB1EF"/>
<path opacity="0.4" d="M46.2797 61.425V53.82C46.2797 34.775 51.6747 22.1 77.9997 22.1C104.325 22.1 109.72 34.775 109.72 53.82V61.425C113.035 61.49 116.025 61.62 118.82 62.01V53.82C118.82 36.27 114.595 13 77.9997 13C41.4047 13 37.1797 36.27 37.1797 53.82V61.945C39.9097 61.62 42.9647 61.425 46.2797 61.425Z" fill="#2CB1EF"/>
</svg>
