<svg width="22" height="22" viewBox="0 0 22 22" fill="none" xmlns="http://www.w3.org/2000/svg">
<path d="M18.2606 4.8457H7.58793C6.07452 4.8457 4.84766 6.07256 4.84766 7.58597V18.2586C4.84766 19.772 6.07452 20.9989 7.58793 20.9989H18.2606C19.774 20.9989 21.0008 19.772 21.0008 18.2586V7.58597C21.0008 6.07256 19.774 4.8457 18.2606 4.8457Z" stroke="white" stroke-opacity="0.65" stroke-linejoin="round"/>
<path d="M17.1291 4.84599L17.1532 3.6922C17.1511 2.97881 16.8669 2.29521 16.3624 1.79077C15.858 1.28632 15.1744 1.00203 14.461 1H4.0768C3.26152 1.00241 2.48032 1.32734 1.90383 1.90383C1.32734 2.48032 1.00241 3.26152 1 4.0768V14.461C1.00203 15.1744 1.28632 15.858 1.79077 16.3624C2.29521 16.8669 2.97881 17.1511 3.6922 17.1532H4.84599" stroke="white" stroke-opacity="0.65" stroke-linecap="round" stroke-linejoin="round"/>
</svg>
