<svg width="441" height="441" viewBox="0 0 441 441" fill="none" xmlns="http://www.w3.org/2000/svg">
<circle cx="220.499" cy="220.749" r="169.423" transform="rotate(90 220.499 220.749)" fill="#075CAA"/>
<circle cx="220.504" cy="220.75" r="186.365" transform="rotate(90 220.504 220.75)" fill="url(#paint0_linear_2001_2766)"/>
<circle cx="220.493" cy="220.752" r="202.974" transform="rotate(-90 220.493 220.752)" stroke="url(#paint1_linear_2001_2766)" stroke-width="0.668269"/>
<circle cx="220.5" cy="220.75" r="219.582" transform="rotate(90 220.5 220.75)" stroke="url(#paint2_linear_2001_2766)" stroke-width="1.33654"/>
<path d="M203.579 211.916C203.579 210.399 202.349 209.169 200.832 209.169C189.685 209.169 180.694 211.589 174.107 216.36C154.878 230.293 153.779 265.97 153.911 276.571C153.929 278.075 155.154 279.285 156.658 279.285H156.691C157.421 279.277 158.117 278.979 158.627 278.457C159.136 277.935 159.417 277.231 159.408 276.502C159.323 269.429 159.792 233.507 177.332 220.802C182.963 216.726 190.871 214.657 200.834 214.657C202.348 214.656 203.576 213.43 203.579 211.916Z" fill="white"/>
<path d="M215.993 274.2C210.365 278.276 202.467 280.345 192.493 280.345C190.976 280.345 189.746 281.574 189.746 283.091C189.746 284.609 190.976 285.838 192.493 285.838C203.64 285.838 212.631 283.418 219.215 278.647C220.04 278.083 220.493 277.115 220.399 276.121C220.305 275.126 219.678 274.261 218.762 273.862C217.846 273.462 216.786 273.592 215.993 274.2Z" fill="white"/>
<path d="M284.295 181.232C284.492 172.082 283.275 154.244 272.029 143.325C259.767 131.386 239.596 131.612 231.493 132.26C228.137 132.466 225.489 135.191 225.378 138.55C224.955 146.668 225.296 166.844 237.561 178.763C247.351 188.278 262.187 190.056 271.898 190.056C272.757 190.056 273.562 190.039 274.337 190.014C276.117 193.392 277.61 196.915 278.798 200.543C279.139 201.654 279.37 202.796 279.487 203.952C277.3 203.539 275.209 202.722 273.321 201.543L272.268 200.89C270.797 199.915 269.249 199.06 267.64 198.335C256.607 193.354 243.665 195.451 234.77 203.661C234.377 202.219 233.86 200.813 233.226 199.458C232.495 198.268 230.987 197.816 229.721 198.408C228.456 199 227.836 200.447 228.282 201.771C209.223 197.132 184.809 195.047 167.662 207.474C144.961 223.903 142.758 261.273 142.863 276.573C142.889 282.465 146.67 287.684 152.26 289.544C165.212 294.024 178.78 296.467 192.481 296.785C204.18 296.785 216.104 294.467 225.675 287.542C243.475 274.631 248.576 248.898 249.936 231.762C250.114 231.982 250.301 232.194 250.455 232.427C251.297 233.689 253.003 234.03 254.265 233.188C255.527 232.346 255.868 230.64 255.026 229.378C253.463 227.175 251.39 225.384 248.983 224.159C248.855 224.067 248.719 223.988 248.576 223.923C247.397 223.31 246.176 222.781 244.923 222.34C245.712 221.835 246.53 221.376 247.373 220.967C249.417 219.867 251.77 219.481 254.059 219.868C255.886 220.438 257.583 221.362 259.053 222.588C259.731 223.074 260.407 223.552 261.094 223.997C263.498 225.595 266.085 226.899 268.799 227.881C271.989 229.007 275.344 229.595 278.727 229.623C286.512 229.846 293.875 226.087 298.26 219.65C302.645 213.213 303.448 204.984 300.389 197.821C297.3 190.465 291.554 184.543 284.295 181.232ZM241.393 174.824C230.737 164.462 230.49 146.206 230.864 138.833C230.852 138.544 230.959 138.262 231.161 138.054C231.364 137.846 231.642 137.731 231.932 137.735C233.471 137.614 235.484 137.507 237.808 137.507C246.598 137.507 259.784 139.061 268.2 147.253C276.504 155.326 278.485 168.179 278.776 176.955C270.907 163.772 259.483 153.073 245.813 146.085C244.481 145.359 242.812 145.849 242.085 147.181C241.358 148.513 241.849 150.182 243.181 150.909C265.269 162.96 273.634 177.931 276.383 184.422C268.373 184.922 251.474 184.625 241.393 174.824ZM222.455 283.095C201.782 298.063 167.706 288.951 154.004 284.333C150.642 283.219 148.368 280.08 148.357 276.538C148.258 262.086 150.249 226.856 170.882 211.921C188.058 199.48 214.717 203.821 230.111 207.908C230.974 212.492 230.346 217.233 228.317 221.434C227.893 222.284 227.937 223.293 228.436 224.102C228.934 224.911 229.815 225.405 230.765 225.409C235.528 225.462 240.242 226.375 244.681 228.103C243.791 244.039 239.638 270.637 222.455 283.095ZM295.043 214.262C291.747 221.22 282.682 226.815 270.596 222.678C268.295 221.837 266.102 220.725 264.063 219.365C263.448 218.97 262.846 218.541 262.239 218.107C260.177 216.418 257.783 215.18 255.213 214.473C251.74 213.818 248.147 214.351 245.013 215.984C242.479 217.245 240.095 218.787 237.907 220.582C236.764 220.396 235.671 220.242 234.729 220.148C235.728 216.936 236.119 213.566 235.882 210.21C244.077 201.475 255.509 198.755 265.401 203.356C266.772 203.982 268.09 204.717 269.343 205.554L270.442 206.235C270.716 206.408 277.391 210.416 281.605 209.235C282.804 208.917 283.813 208.106 284.382 207.004C285.233 204.377 285.117 201.532 284.056 198.983C283.007 195.66 281.686 192.43 280.105 189.325C280.693 189.094 281.242 188.777 281.737 188.385L281.842 188.298C282.367 187.868 282.82 187.357 283.182 186.784C288.62 189.578 292.9 194.198 295.269 199.835C297.231 204.46 297.149 209.7 295.043 214.262Z" fill="white"/>
<defs>
<linearGradient id="paint0_linear_2001_2766" x1="220.504" y1="34.3848" x2="220.504" y2="407.116" gradientUnits="userSpaceOnUse">
<stop stop-color="#075CAA"/>
<stop offset="1" stop-color="#075CAA" stop-opacity="0"/>
</linearGradient>
<linearGradient id="paint1_linear_2001_2766" x1="220.493" y1="17.4442" x2="220.493" y2="424.06" gradientUnits="userSpaceOnUse">
<stop stop-color="#FF4242"/>
<stop offset="1" stop-color="#42A4FF" stop-opacity="0"/>
</linearGradient>
<linearGradient id="paint2_linear_2001_2766" x1="220.5" y1="0.5" x2="220.5" y2="441" gradientUnits="userSpaceOnUse">
<stop stop-color="#42A4FF" stop-opacity="0"/>
<stop offset="1" stop-color="#FBB144"/>
</linearGradient>
</defs>
</svg>
