<svg width="508" height="70" viewBox="0 0 508 70" fill="none" xmlns="http://www.w3.org/2000/svg">
<path fill-rule="evenodd" clip-rule="evenodd" d="M34.3993 9.67716C35.3623 12.2452 34.165 15.083 31.727 16.0154C29.2907 16.9472 26.5324 15.6221 25.5695 13.0541C24.6065 10.4861 25.8021 7.64886 28.2401 6.71645C30.6781 5.78404 33.4364 7.10915 34.3993 9.67716ZM37.9803 18.3835C38.8894 20.8082 41.4951 22.0639 43.7985 21.183L43.7991 21.1846C43.9887 21.1121 44.1703 21.0274 44.3435 20.9317C44.536 21.1119 44.7225 21.3003 44.9031 21.4968C45.9893 22.5766 46.8286 23.9264 47.421 25.5461C48.0135 27.1167 48.3097 28.9082 48.3097 30.9205C48.3097 31.1087 48.3072 31.2951 48.302 31.4798C45.9258 32.4475 44.7722 35.2456 45.723 37.7813C45.8551 38.1338 46.0211 38.4628 46.2154 38.7659C45.8276 39.361 45.3902 39.9116 44.9031 40.4178C43.8663 41.4976 42.632 42.332 41.2002 42.921C39.8178 43.51 38.3119 43.8045 36.6826 43.8045C36.1029 43.8045 35.5357 43.7672 34.981 43.6926C35.0516 43.1703 34.9967 42.6184 34.7965 42.0845C34.1788 40.4371 32.4131 39.5879 30.8491 40.1861C30.246 40.4167 29.7616 40.8286 29.4295 41.3422C29.0684 41.0572 28.7213 40.7491 28.3881 40.4178C27.3513 39.289 26.5367 37.9392 25.9442 36.3686C25.3518 34.7489 25.0555 32.9329 25.0555 30.9205C25.0555 30.332 25.0809 29.7624 25.1315 29.2117C25.2241 29.183 25.3162 29.1511 25.4079 29.116C27.8443 28.1842 29.0393 25.3453 28.0763 22.7773C27.9966 22.5648 27.9047 22.3608 27.8017 22.1659C27.9886 21.9324 28.184 21.7094 28.3881 21.4968C29.4743 20.3679 30.7086 19.509 32.091 18.92C33.5228 18.3311 35.0534 18.0366 36.6826 18.0366C37.0898 18.0366 37.4892 18.055 37.881 18.0917C37.9108 18.1893 37.9439 18.2866 37.9803 18.3835ZM13.3513 14.1181C14.0822 13.2425 14.8732 12.4136 15.7242 11.6314C18.3409 9.1773 21.4267 7.28766 24.9815 5.96245C28.5856 4.63724 32.486 3.97464 36.6826 3.97464C38.7784 3.97464 40.79 4.13607 42.7173 4.45892C42.6873 5.10093 42.785 5.76347 43.0267 6.40796C43.9359 8.83259 42.8069 11.5148 40.5035 12.3958C38.2921 13.2415 37.1632 15.7474 37.881 18.0917C39.0568 18.2021 40.1632 18.4782 41.2002 18.92C42.3826 19.4065 43.4304 20.077 44.3435 20.9317C46.2746 19.8639 47.1566 17.4218 46.3217 15.1952C45.4119 12.769 46.5415 10.0884 48.8449 9.20743C49.8673 8.81643 50.6584 8.0709 51.1426 7.15043C53.5599 8.3418 55.7261 9.83545 57.641 11.6314C60.2578 14.0364 62.282 16.8831 63.7138 20.1716C65.195 23.411 65.9355 26.994 65.9355 30.9205C65.9355 33.3808 65.6374 35.7226 65.041 37.9458C63.7973 37.0678 62.1946 36.798 60.7088 37.3663C58.2691 38.2993 55.5148 36.9747 54.5512 34.4049C53.5876 31.8352 54.7838 28.9997 57.2218 28.0673C59.6598 27.1349 60.8561 24.2994 59.8925 21.7296C58.9289 19.1599 56.1745 17.8353 53.7349 18.7683C51.2953 19.7013 50.1007 22.5362 51.0643 25.106C52.0278 27.6757 50.8316 30.5112 48.3936 31.4436C48.3629 31.4554 48.3323 31.4674 48.302 31.4798C48.2518 33.2707 47.9581 34.9003 47.421 36.3686C47.0943 37.2349 46.6924 38.034 46.2154 38.7659C47.4367 40.6707 49.7772 41.547 51.8805 40.7426C54.3186 39.8102 57.0752 41.1359 58.0381 43.7039C58.5638 45.1058 59.6235 46.1377 60.8744 46.6339C59.9219 47.9386 58.8441 49.155 57.641 50.2833C55.2387 52.4912 52.4411 54.2441 49.2482 55.542C49.914 56.2365 50.564 56.7414 51.198 57.0566C52.0373 57.4492 52.9754 57.6455 54.0122 57.6455C56.5795 57.6455 58.9741 56.5412 61.1958 54.3325L68.7497 63.1672C65.0468 67.5355 60.0109 69.7197 53.6419 69.7197C51.2227 69.7197 48.9763 69.4742 46.9026 68.9834C44.829 68.5417 42.8048 67.7809 40.8299 66.7011C38.9044 65.6213 36.8801 64.1243 34.7571 62.2101C33.1469 60.7955 31.3946 59.1126 29.5003 57.1614C27.9456 56.8422 26.4393 56.4146 24.9815 55.8786C21.4267 54.5534 18.3409 52.6883 15.7242 50.2833C13.1075 47.8292 11.0586 44.9579 9.57742 41.6694C8.77116 39.8176 8.19191 37.8725 7.83967 35.8339C10.2182 34.8675 11.3728 32.0662 10.4215 29.5293C9.45856 26.9613 10.6509 24.1253 13.0905 23.1923C15.5302 22.2592 18.2874 23.5867 19.2497 26.153C20.1758 28.6227 22.7664 29.946 25.1315 29.2117C25.2541 27.8792 25.525 26.6574 25.9442 25.5461C26.4201 24.2452 27.0392 23.1185 27.8017 22.1659C26.6599 20.0051 24.1581 18.9595 21.9204 19.8153C19.4807 20.7484 16.7257 19.422 15.7628 16.854C15.298 15.6144 14.4148 14.6644 13.3513 14.1181ZM13.3513 14.1181C12.2116 13.5327 10.8647 13.411 9.60359 13.8933C7.16558 14.8257 5.97162 17.6623 6.93393 20.2286C7.89625 22.7949 6.7013 25.6339 4.26329 26.5663C1.82529 27.4987 0.630345 30.3376 1.59266 32.9039C2.55497 35.4702 5.31287 36.7994 7.75087 35.867L7.75152 35.8687C7.78108 35.8574 7.81047 35.8458 7.83967 35.8339C7.56638 34.2523 7.42974 32.6145 7.42974 30.9205C7.42974 26.994 8.14563 23.411 9.57742 20.1716C10.5769 17.9527 11.8348 15.9348 13.3513 14.1181ZM42.1788 51.6637C42.5801 51.7414 43.0031 51.7122 43.4083 51.5572C43.6284 51.473 43.8281 51.3576 44.0046 51.2174C44.7983 50.587 45.1235 49.4559 44.7328 48.414C44.2552 47.1404 42.8889 46.4826 41.6789 46.9453C40.469 47.4081 39.8768 48.8149 40.3544 50.0885C40.6719 50.9353 41.3827 51.5097 42.1788 51.6637ZM40.9856 57.6262C40.4171 58.6104 40.2827 59.8606 40.7249 61.0398C41.4849 63.0666 43.6587 64.1109 45.5817 63.3755C47.5046 62.6401 49.6789 63.6857 50.4384 65.7113C51.198 67.7368 53.371 68.7829 55.2939 68.0475C57.2169 67.3121 58.1617 65.0751 57.4017 63.0482C56.6417 61.0213 54.4653 59.978 52.5436 60.7129C50.6219 61.4479 48.4482 60.4035 47.6881 58.3767C47.4043 57.6199 46.9235 57 46.3321 56.5587C45.3397 55.8181 44.0363 55.5801 42.8314 56.0409C42.0271 56.3485 41.3942 56.9186 40.9856 57.6262ZM60.8744 46.6339C61.915 47.0467 63.0879 47.089 64.1957 46.6653C66.6337 45.7329 67.8293 42.8956 66.8663 40.3276C66.4899 39.3236 65.8394 38.5094 65.041 37.9458C64.6976 39.2263 64.2551 40.4675 63.7138 41.6694C62.9403 43.446 61.9938 45.1009 60.8744 46.6339ZM51.1426 7.15043C51.7493 5.99705 51.8741 4.56901 51.3681 3.21964C50.4583 0.793392 47.8554 -0.459733 45.5505 0.42179C43.8582 1.069 42.8003 2.68565 42.7173 4.45892C44.6948 4.79017 46.5836 5.29135 48.3838 5.96245C49.3371 6.31785 50.2567 6.71384 51.1426 7.15043ZM29.4295 41.3422C28.9003 42.1605 28.7575 43.2368 29.1371 44.2489C29.7548 45.8962 28.99 47.7132 27.4261 48.3113C25.8621 48.9095 24.0964 48.0603 23.4787 46.4129C22.861 44.7656 21.0921 43.9176 19.5303 44.5149C17.9684 45.1123 17.2015 46.93 17.8193 48.5774C18.437 50.2247 20.2027 51.0739 21.7656 50.4762C23.3285 49.8784 25.0971 50.729 25.714 52.3741C26.3309 54.0193 28.0975 54.8707 29.6614 54.2725C31.2233 53.6752 31.9901 51.8575 31.3724 50.2101C30.7547 48.5628 31.5205 46.7454 33.0845 46.1473C34.1415 45.743 34.8339 44.7819 34.981 43.6926C33.9767 43.5576 33.0134 43.3004 32.091 42.921C31.1327 42.5127 30.2455 41.9864 29.4295 41.3422Z" fill="url(#paint0_linear_3386_12987)"/>
<path d="M507.874 26.1924L496.594 50.0004L492.034 59.7444H484.546L489.394 49.7604L478.546 26.1924H486.466L493.282 42.6084L500.194 26.1924H507.874Z" fill="white"/>
<path d="M468.61 25.4243C471.874 25.4243 474.386 26.3043 476.146 28.0643C477.938 29.8243 478.834 32.3683 478.834 35.6963V50.0003H471.538V37.1363C471.538 35.1203 471.074 33.6323 470.146 32.6723C469.218 31.6803 467.826 31.1843 465.97 31.1843C463.986 31.1843 462.466 31.7603 461.41 32.9123C460.386 34.0643 459.874 35.7123 459.874 37.8563V50.0003H452.578V16.1123H459.874V29.3603C461.858 26.7363 464.77 25.4243 468.61 25.4243Z" fill="white"/>
<path d="M449.135 32.0478C449.935 33.8078 450.335 35.8238 450.335 38.0958C450.335 40.3358 449.935 42.3518 449.135 44.1438C448.175 46.2238 446.703 47.8398 444.719 48.9918C442.767 50.1438 440.447 50.7198 437.759 50.7198C435.839 50.7198 434.111 50.4158 432.575 49.8078C431.071 49.1998 429.791 48.3038 428.735 47.1198V59.7438H421.439V26.1918H428.543V29.2638C429.599 27.9838 430.895 27.0238 432.431 26.3838C433.999 25.7438 435.775 25.4238 437.759 25.4238C440.447 25.4238 442.767 25.9998 444.719 27.1518C446.703 28.3038 448.175 29.9358 449.135 32.0478ZM441.983 41.5518C442.399 40.6878 442.607 39.5358 442.607 38.0958C442.607 36.6238 442.399 35.4558 441.983 34.5918C441.503 33.4718 440.703 32.6238 439.583 32.0478C438.463 31.4718 437.135 31.1838 435.599 31.1838C434.255 31.1838 433.055 31.4398 431.999 31.9518C430.943 32.4318 430.111 33.1678 429.503 34.1598C428.927 35.1198 428.639 36.3038 428.639 37.7118V38.4798C428.639 39.8558 428.927 41.0398 429.503 42.0318C430.111 42.9918 430.943 43.7278 431.999 44.2398C433.055 44.7198 434.255 44.9598 435.599 44.9598C437.135 44.9598 438.463 44.6718 439.583 44.0958C440.703 43.5198 441.503 42.6718 441.983 41.5518Z" fill="white"/>
<path d="M416.935 30.8478C417.607 32.3838 417.943 34.2238 417.943 36.3678V49.9998H410.647V47.0718C408.663 49.5038 405.495 50.7198 401.143 50.7198C398.807 50.7198 396.839 50.3678 395.239 49.6638C393.671 48.9598 392.567 47.9038 391.927 46.4958C391.511 45.5038 391.303 44.4958 391.303 43.4718C391.303 42.2878 391.511 41.2318 391.927 40.3038C392.791 38.4158 394.375 37.1198 396.679 36.4158C399.015 35.7118 401.975 35.3598 405.559 35.3598H410.599V35.0238C410.599 34.4798 410.567 34.0478 410.503 33.7278C410.439 33.3758 410.327 33.0398 410.167 32.7198C409.495 31.1838 407.799 30.4158 405.079 30.4158C402.391 30.4158 400.711 31.1198 400.039 32.5278C399.847 32.9438 399.751 33.3598 399.751 33.7758H392.359C392.455 32.6238 392.695 31.5838 393.079 30.6558C393.879 28.8318 395.303 27.5038 397.351 26.6718C399.431 25.8398 401.975 25.4238 404.983 25.4238C408.151 25.4238 410.727 25.8558 412.711 26.7198C414.695 27.5838 416.103 28.9598 416.935 30.8478ZM403.639 45.5358C405.239 45.5358 406.615 45.2798 407.767 44.7678C408.919 44.2238 409.719 43.4398 410.167 42.4158C410.487 41.7758 410.647 40.9598 410.647 39.9678V39.6318H405.799C403.943 39.6318 402.455 39.7598 401.335 40.0158C400.215 40.2398 399.495 40.7198 399.175 41.4558C399.015 41.8398 398.935 42.2078 398.935 42.5598C398.935 43.0398 398.999 43.4238 399.127 43.7118C399.447 44.3518 400.007 44.8158 400.807 45.1038C401.607 45.3918 402.551 45.5358 403.639 45.5358Z" fill="white"/>
<path d="M376.085 26.1915H383.333V28.1115C383.941 27.2155 384.581 26.5595 385.253 26.1435C385.957 25.7275 386.757 25.5195 387.653 25.5195C388.997 25.5195 390.069 25.9195 390.869 26.7195C391.669 27.4875 392.069 28.5115 392.069 29.7915C392.069 30.6235 391.893 31.3595 391.541 31.9995C391.189 32.6395 390.693 33.1355 390.053 33.4875C389.413 33.8395 388.693 34.0155 387.893 34.0155C387.029 34.0155 386.277 33.8235 385.637 33.4395C384.997 33.0555 384.501 32.5275 384.149 31.8555C383.829 32.0155 383.621 32.2395 383.525 32.5275C383.429 32.7835 383.381 33.2635 383.381 33.9675V49.9995H376.085V26.1915Z" fill="white"/>
<path d="M372.35 26.1918V48.3678C372.35 50.6718 371.982 52.6558 371.246 54.3198C369.39 58.4158 365.134 60.4638 358.478 60.4638C353.358 60.4638 349.614 59.3918 347.246 57.2478C345.678 55.8718 344.75 54.0158 344.462 51.6798H352.142C352.238 52.4798 352.622 53.1838 353.294 53.7918C353.838 54.3038 354.542 54.6878 355.406 54.9438C356.302 55.1998 357.278 55.3278 358.334 55.3278C361.534 55.3278 363.582 54.3038 364.478 52.2558C364.83 51.3598 365.006 50.3518 365.006 49.2318V46.5918C363.982 47.8078 362.702 48.7358 361.166 49.3758C359.662 49.9838 357.95 50.2878 356.03 50.2878C353.374 50.2878 351.07 49.7278 349.118 48.6078C347.198 47.4878 345.774 45.8878 344.846 43.8078C344.078 42.1118 343.694 40.1278 343.694 37.8558C343.694 35.5838 344.078 33.5838 344.846 31.8558C345.774 29.8078 347.198 28.2238 349.118 27.1038C351.07 25.9838 353.374 25.4238 356.03 25.4238C357.982 25.4238 359.726 25.7598 361.262 26.4318C362.798 27.0718 364.078 27.9998 365.102 29.2158V26.1918H372.35ZM358.19 44.6718C360.238 44.6718 361.886 44.1278 363.134 43.0398C364.382 41.9518 365.006 40.3678 365.006 38.2878V37.4718C365.006 35.3918 364.382 33.8238 363.134 32.7678C361.886 31.6798 360.238 31.1358 358.19 31.1358C356.686 31.1358 355.39 31.4238 354.302 31.9998C353.246 32.5438 352.478 33.3598 351.998 34.4478C351.582 35.3118 351.374 36.4478 351.374 37.8558C351.374 39.2638 351.582 40.4318 351.998 41.3598C352.478 42.4478 353.246 43.2798 354.302 43.8558C355.39 44.3998 356.686 44.6718 358.19 44.6718Z" fill="white"/>
<path d="M327.717 50.7198C324.325 50.7198 321.429 50.0958 319.029 48.8478C316.661 47.5998 314.965 45.8078 313.941 43.4718C313.237 41.8718 312.885 40.0798 312.885 38.0958C312.885 36.0478 313.237 34.2558 313.941 32.7198C314.965 30.3838 316.661 28.5918 319.029 27.3438C321.429 26.0638 324.325 25.4238 327.717 25.4238C331.109 25.4238 333.989 26.0478 336.357 27.2958C338.757 28.5118 340.469 30.2718 341.493 32.5758C342.229 34.2398 342.597 36.0798 342.597 38.0958C342.597 40.1118 342.229 41.9358 341.493 43.5678C340.469 45.8718 338.757 47.6478 336.357 48.8958C333.989 50.1118 331.109 50.7198 327.717 50.7198ZM327.717 45.0078C329.317 45.0078 330.677 44.7198 331.797 44.1438C332.949 43.5358 333.781 42.6718 334.293 41.5518C334.709 40.6238 334.917 39.4718 334.917 38.0958C334.917 36.6558 334.709 35.5038 334.293 34.6398C333.781 33.5198 332.949 32.6718 331.797 32.0958C330.677 31.4878 329.317 31.1838 327.717 31.1838C326.117 31.1838 324.741 31.4878 323.589 32.0958C322.469 32.6718 321.653 33.5198 321.141 34.6398C320.725 35.5038 320.517 36.6558 320.517 38.0958C320.517 39.5038 320.725 40.6398 321.141 41.5038C321.653 42.6238 322.469 43.4878 323.589 44.0958C324.741 44.7038 326.117 45.0078 327.717 45.0078Z" fill="white"/>
<path d="M300.991 25.4238C304.127 25.4238 306.543 26.3038 308.239 28.0638C309.967 29.8238 310.831 32.3358 310.831 35.5998V49.9998H303.535V36.9438C303.535 33.1038 301.823 31.1838 298.399 31.1838C296.575 31.1838 295.167 31.7278 294.175 32.8158C293.215 33.8718 292.735 35.3918 292.735 37.3758V49.9998H285.439V36.9438C285.439 33.1038 283.711 31.1838 280.255 31.1838C278.431 31.1838 277.039 31.7278 276.079 32.8158C275.119 33.9038 274.639 35.4398 274.639 37.4238V49.9998H267.343V26.1918H274.639V29.3118C276.591 26.7198 279.455 25.4238 283.231 25.4238C285.343 25.4238 287.135 25.8238 288.607 26.6238C290.079 27.4238 291.167 28.5918 291.871 30.1278C292.863 28.5278 294.095 27.3438 295.567 26.5758C297.071 25.8078 298.879 25.4238 300.991 25.4238Z" fill="white"/>
<path d="M263.58 26.1924V50.0004H256.284V46.8324C254.3 49.4564 251.388 50.7684 247.548 50.7684C244.284 50.7684 241.756 49.8884 239.964 48.1284C238.204 46.3684 237.324 43.8244 237.324 40.4964V26.1924H244.62V39.0564C244.62 41.0724 245.084 42.5764 246.012 43.5684C246.94 44.5284 248.332 45.0084 250.188 45.0084C252.172 45.0084 253.676 44.4324 254.7 43.2804C255.756 42.1284 256.284 40.4804 256.284 38.3364V26.1924H263.58Z" fill="white"/>
<path d="M229.655 50.4798C226.679 50.4798 224.471 49.7918 223.031 48.4158C221.591 47.0398 220.871 44.8958 220.871 41.9838V31.8558H216.887V26.1918H220.871V20.3838H228.167V26.1918H235.463V31.8558H228.167V40.4478C228.167 41.8878 228.487 42.9438 229.127 43.6158C229.799 44.2878 230.775 44.6238 232.055 44.6238C232.983 44.6238 234.055 44.4798 235.271 44.1918V49.9038C233.255 50.2878 231.383 50.4798 229.655 50.4798Z" fill="white"/>
<path d="M205.711 25.4238C208.975 25.4238 211.487 26.3038 213.247 28.0638C215.039 29.8238 215.935 32.3678 215.935 35.6958V49.9998H208.639V37.1358C208.639 35.1198 208.175 33.6318 207.247 32.6718C206.319 31.6798 204.927 31.1838 203.071 31.1838C201.087 31.1838 199.567 31.7598 198.511 32.9118C197.487 34.0638 196.975 35.7118 196.975 37.8558V49.9998H189.679V26.1918H196.975V29.3598C198.959 26.7358 201.871 25.4238 205.711 25.4238Z" fill="white"/>
<path d="M185.173 30.8478C185.845 32.3838 186.181 34.2238 186.181 36.3678V49.9998H178.885V47.0718C176.901 49.5038 173.733 50.7198 169.381 50.7198C167.045 50.7198 165.077 50.3678 163.477 49.6638C161.909 48.9598 160.805 47.9038 160.165 46.4958C159.749 45.5038 159.541 44.4958 159.541 43.4718C159.541 42.2878 159.749 41.2318 160.165 40.3038C161.029 38.4158 162.613 37.1198 164.917 36.4158C167.253 35.7118 170.213 35.3598 173.797 35.3598H178.837V35.0238C178.837 34.4798 178.805 34.0478 178.741 33.7278C178.677 33.3758 178.565 33.0398 178.405 32.7198C177.733 31.1838 176.037 30.4158 173.317 30.4158C170.629 30.4158 168.949 31.1198 168.277 32.5278C168.085 32.9438 167.989 33.3598 167.989 33.7758H160.597C160.693 32.6238 160.933 31.5838 161.317 30.6558C162.117 28.8318 163.541 27.5038 165.589 26.6718C167.669 25.8398 170.213 25.4238 173.221 25.4238C176.389 25.4238 178.965 25.8558 180.949 26.7198C182.933 27.5838 184.341 28.9598 185.173 30.8478ZM171.877 45.5358C173.477 45.5358 174.853 45.2798 176.005 44.7678C177.157 44.2238 177.957 43.4398 178.405 42.4158C178.725 41.7758 178.885 40.9598 178.885 39.9678V39.6318H174.037C172.181 39.6318 170.693 39.7598 169.573 40.0158C168.453 40.2398 167.733 40.7198 167.413 41.4558C167.253 41.8398 167.173 42.2078 167.173 42.5598C167.173 43.0398 167.237 43.4238 167.365 43.7118C167.685 44.3518 168.245 44.8158 169.045 45.1038C169.845 45.3918 170.789 45.5358 171.877 45.5358Z" fill="white"/>
<path d="M157.074 26.1924V50.0004H149.778V46.8324C147.794 49.4564 144.882 50.7684 141.042 50.7684C137.778 50.7684 135.25 49.8884 133.458 48.1284C131.698 46.3684 130.818 43.8244 130.818 40.4964V26.1924H138.114V39.0564C138.114 41.0724 138.578 42.5764 139.506 43.5684C140.434 44.5284 141.826 45.0084 143.682 45.0084C145.666 45.0084 147.17 44.4324 148.194 43.2804C149.25 42.1284 149.778 40.4804 149.778 38.3364V26.1924H157.074Z" fill="white"/>
<path d="M126.64 24.6083C127.76 27.0403 128.32 29.8563 128.32 33.0563C128.32 36.3203 127.744 39.1843 126.592 41.6483C125.024 45.1043 122.336 47.6323 118.528 49.2323L122.368 54.5123L116.512 58.2563L111.568 50.8643C110.416 50.9283 109.536 50.9603 108.928 50.9603C104.736 50.9603 101.168 50.2083 98.224 48.7043C95.28 47.2003 93.104 45.0563 91.696 42.2723C90.992 41.0563 90.464 39.6643 90.112 38.0963C89.76 36.5283 89.584 34.8483 89.584 33.0563C89.584 29.8883 90.128 27.1203 91.216 24.7523C92.56 21.6803 94.752 19.3123 97.792 17.6483C100.864 15.9843 104.592 15.1523 108.976 15.1523C113.328 15.1523 117.024 15.9843 120.064 17.6483C123.104 19.2803 125.296 21.6003 126.64 24.6083ZM119.056 38.8643C119.728 37.2323 120.064 35.2963 120.064 33.0563C120.064 31.8723 119.968 30.8163 119.776 29.8883C119.616 28.9283 119.36 28.0323 119.008 27.2003C118.208 25.4723 116.944 24.1443 115.216 23.2163C113.52 22.2883 111.424 21.8243 108.928 21.8243C106.432 21.8243 104.336 22.2883 102.64 23.2163C100.944 24.1443 99.696 25.4723 98.896 27.2003C98.544 28.0323 98.272 28.9283 98.08 29.8883C97.92 30.8163 97.84 31.8723 97.84 33.0563C97.84 35.3283 98.192 37.2643 98.896 38.8643C99.696 40.6243 100.944 41.9683 102.64 42.8963C104.368 43.8243 106.48 44.2883 108.976 44.2883H109.216L113.104 41.6963L114.304 43.3283C116.48 42.4643 118.064 40.9763 119.056 38.8643Z" fill="white"/>
<defs>
<linearGradient id="paint0_linear_3386_12987" x1="5.31244" y1="42.4243" x2="87.3204" y2="19.9369" gradientUnits="userSpaceOnUse">
<stop stop-color="#FFF23A"/>
<stop offset="0.04" stop-color="#FEE52C"/>
<stop offset="0.12" stop-color="#FDD41A"/>
<stop offset="0.2" stop-color="#FDC90E"/>
<stop offset="0.28" stop-color="#FDC60B"/>
<stop offset="0.67" stop-color="#F28F3F"/>
<stop offset="0.89" stop-color="#ED693C"/>
<stop offset="1" stop-color="#E83E39"/>
</linearGradient>
</defs>
</svg>
