<svg width="20" height="20" viewBox="0 0 20 20" fill="none" xmlns="http://www.w3.org/2000/svg">
<path d="M3.13152 0H9.39457C10.2251 0 11.0216 0.332706 11.6089 0.924926C12.1962 1.51715 12.5261 2.32037 12.5261 3.15789V7.36842H11.4823V3.15789C11.4823 2.59954 11.2623 2.06406 10.8708 1.66925C10.4793 1.27444 9.94826 1.05263 9.39457 1.05263H3.13152C2.57784 1.05263 2.04683 1.27444 1.65531 1.66925C1.26379 2.06406 1.04384 2.59954 1.04384 3.15789V16.8421C1.04384 17.4005 1.26379 17.9359 1.65531 18.3308C2.04683 18.7256 2.57784 18.9474 3.13152 18.9474H9.39457C9.94826 18.9474 10.4793 18.7256 10.8708 18.3308C11.2623 17.9359 11.4823 17.4005 11.4823 16.8421V12.6316H12.5261V16.8421C12.5261 17.6796 12.1962 18.4829 11.6089 19.0751C11.0216 19.6673 10.2251 20 9.39457 20H3.13152C2.30099 20 1.50448 19.6673 0.917202 19.0751C0.329928 18.4829 0 17.6796 0 16.8421V3.15789C0 2.32037 0.329928 1.51715 0.917202 0.924926C1.50448 0.332706 2.30099 0 3.13152 0ZM6.26305 9.47368H18.0063L14.6138 6.05263L15.3027 5.26316L20 10L15.3027 14.7368L14.6138 13.9474L18.0063 10.5263H6.26305V9.47368Z" fill="white"/>
</svg>
