<svg width="48" height="48" viewBox="0 0 48 48" fill="none" xmlns="http://www.w3.org/2000/svg">
<circle cx="24" cy="24" r="23" stroke="#DF3434" stroke-opacity="0.3" stroke-width="2"/>
<circle cx="24" cy="24" r="20" fill="#041F39"/>
<path d="M22.9249 26.9136C23.9569 25.5336 24.6889 24.5316 25.1209 23.9076C25.5649 23.2836 25.8649 22.7976 26.0209 22.4496C26.1889 22.0896 26.2729 21.7476 26.2729 21.4236C26.2729 20.9676 26.1109 20.6136 25.7869 20.3616C25.4749 20.1096 25.0009 19.9836 24.3649 19.9836C23.4169 19.9836 22.8049 20.2836 22.5289 20.8836C22.4689 21.0276 22.4209 21.1716 22.3849 21.3156C22.3609 21.4476 22.3489 21.6096 22.3489 21.8016H19.6309C19.6309 21.4416 19.6489 21.1236 19.6849 20.8476C19.7329 20.5596 19.8109 20.2956 19.9189 20.0556C20.2429 19.3596 20.7829 18.8316 21.5389 18.4716C22.2949 18.1116 23.2549 17.9316 24.4189 17.9316C25.4149 17.9316 26.2669 18.0696 26.9749 18.3456C27.6829 18.6096 28.2229 18.9936 28.5949 19.4976C28.9669 20.0016 29.1529 20.6076 29.1529 21.3156C29.1529 21.7236 29.0749 22.1256 28.9189 22.5216C28.7629 22.9176 28.4689 23.4276 28.0369 24.0516C27.6169 24.6756 26.9329 25.6296 25.9849 26.9136H22.9249ZM24.2929 31.3596C23.8129 31.3596 23.4229 31.2156 23.1229 30.9276C22.8229 30.6276 22.6729 30.2376 22.6729 29.7576C22.6729 29.2656 22.8229 28.8756 23.1229 28.5876C23.4229 28.2996 23.8129 28.1556 24.2929 28.1556C24.7849 28.1556 25.1809 28.2996 25.4809 28.5876C25.7809 28.8756 25.9309 29.2656 25.9309 29.7576C25.9309 30.2376 25.7809 30.6276 25.4809 30.9276C25.1809 31.2156 24.7849 31.3596 24.2929 31.3596Z" fill="white"/>
</svg>
